<svg id="圖層_1" data-name="圖層 1" xmlns="http://www.w3.org/2000/svg" viewBox="0 0 400 400"><defs><style>.cls-1{fill:none;stroke:#fff;stroke-linecap:round;stroke-linejoin:round;stroke-width:5px;}</style></defs><title>roomlobby</title><ellipse class="cls-1" cx="138.95" cy="249.71" rx="69.21" ry="19.06"/><path class="cls-1" d="M132.62,275.62v42.8s-1.11,9.94-8.29,9.94H106.66"/><path class="cls-1" d="M132.62,275.62v42.8s-1.11,9.94-8.29,9.94H106.66"/><path class="cls-1" d="M147,275.62v42.8s1.11,9.94,8.29,9.94h17.67"/><line class="cls-1" x1="138.96" y1="330.57" x2="138.96" y2="348.79"/><path class="cls-1" d="M99.48,222.21V189.63s1.1-14.91-26.51-14.91c-28.72,0-42,17.23-42,33.24V268.6l49.15,23.2,26.51-7.18"/><line class="cls-1" x1="31" y1="254.15" x2="61.38" y2="245.43"/><line class="cls-1" x1="31" y1="265.86" x2="31" y2="300.1"/><line class="cls-1" x1="79.6" y1="300.93" x2="79.6" y2="335.54"/><path class="cls-1" d="M172.51,233l24.29-9.45V186.25a30.8,30.8,0,0,1,30.11-17.46L369,197.69V316.26l-61.41,28.9L164.29,300V276.44"/><line class="cls-1" x1="192.09" y1="272.66" x2="293.27" y2="304.29"/><path class="cls-1" d="M344.77,250.49l-30.71,10.18s-10.24,1.67-7.22,40.6"/><path class="cls-1" d="M280.69,187.61s-14,4.62-14,18.87v54.7l-27.7,12.63"/><rect class="cls-1" x="325.87" y="142.78" width="8.17" height="8.17" transform="translate(-7.12 276.56) rotate(-45.04)"/><line class="cls-1" x1="329.96" y1="141.07" x2="329.96" y2="135.63"/><line class="cls-1" x1="329.96" y1="152.62" x2="329.96" y2="158.06"/><line class="cls-1" x1="324.18" y1="146.85" x2="318.74" y2="146.85"/><line class="cls-1" x1="335.73" y1="146.85" x2="341.17" y2="146.85"/><rect class="cls-1" x="74.16" y="106.43" width="8.17" height="8.17" transform="translate(-55.25 87.8) rotate(-45.04)"/><line class="cls-1" x1="78.24" y1="104.73" x2="78.24" y2="99.29"/><line class="cls-1" x1="78.24" y1="116.28" x2="78.24" y2="121.72"/><line class="cls-1" x1="72.46" y1="110.51" x2="67.02" y2="110.51"/><line class="cls-1" x1="84.02" y1="110.51" x2="89.46" y2="110.51"/><rect class="cls-1" x="191.29" y="53.99" width="8.17" height="8.17" transform="translate(16.23 155.28) rotate(-45.04)"/><line class="cls-1" x1="195.37" y1="52.28" x2="195.37" y2="46.84"/><line class="cls-1" x1="195.37" y1="63.83" x2="195.37" y2="69.27"/><line class="cls-1" x1="189.59" y1="58.06" x2="184.15" y2="58.06"/><line class="cls-1" x1="201.15" y1="58.06" x2="206.59" y2="58.06"/></svg>