<?xml version="1.0" encoding="utf-8"?>
<!-- Generator: Adobe Illustrator 15.1.0, SVG Export Plug-In . SVG Version: 6.00 Build 0)  -->
<!DOCTYPE svg PUBLIC "-//W3C//DTD SVG 1.1//EN" "http://www.w3.org/Graphics/SVG/1.1/DTD/svg11.dtd">
<svg version="1.1" id="圖層_1" xmlns="http://www.w3.org/2000/svg" xmlns:xlink="http://www.w3.org/1999/xlink" x="0px" y="0px"
	 width="146.993px" height="186.595px" viewBox="0 0 146.993 186.595" enable-background="new 0 0 146.993 186.595"
	 xml:space="preserve">
<g>
	<defs>
		<rect id="SVGID_1_" width="146.993" height="186.595"/>
	</defs>
	<clipPath id="SVGID_2_">
		<use xlink:href="#SVGID_1_"  overflow="visible"/>
	</clipPath>
	<g clip-path="url(#SVGID_2_)">
		<defs>
			<path id="SVGID_3_" d="M72.59,254.54l-54.283,21.938c-1.655,0.669-2.739,2.276-2.739,4.062v61.339
				c0,1.732,1.022,3.302,2.606,4.005l54.27,24.037c1.138,0.503,2.435,0.5,3.569-0.01l54.293-24.399
				c1.573-0.708,2.584-2.272,2.584-3.997V280.53c0-1.785-1.084-3.393-2.738-4.061l-54.279-21.93
				C74.819,254.114,73.642,254.114,72.59,254.54 M28.494,328.975l-0.016-0.002c-0.011-4.211-2.641-8.372-5.938-9.39l0.002-0.022
				c3.323,0.912,6.034-1.746,6.069-5.993c-0.035,4.282,2.662,8.55,6.024,9.53C31.301,322.125,28.572,324.756,28.494,328.975
				 M40.652,345.844l-0.012-0.004c-0.008-2.949-1.847-5.862-4.156-6.576v-0.013c2.327,0.636,4.226-1.224,4.25-4.198
				c-0.024,2.999,1.865,5.987,4.218,6.674C42.618,341.046,40.708,342.887,40.652,345.844 M37.98,337.098
				c0.015,0.004,0.029,0.004,0.043,0.008v0.011C38.009,337.113,37.995,337.102,37.98,337.098 M71.067,303.8l-50.765-22.482
				c-0.754-0.336-1.094-1.219-0.759-1.974c0.331-0.755,1.211-1.1,1.972-0.762l50.764,22.483c0.756,0.334,1.095,1.22,0.759,1.972
				c-0.245,0.559-0.793,0.892-1.367,0.892C71.468,303.929,71.262,303.887,71.067,303.8 M75.726,365.191
				c0,0.829-0.671,1.496-1.497,1.496c-0.827,0-1.497-0.667-1.497-1.496v-58.147c0-0.829,0.669-1.497,1.497-1.497
				c0.826,0,1.497,0.668,1.497,1.497V365.191z M106.886,339.418c-0.812,0.308-1.6,0.456-2.343,0.456
				c-3.215,0-5.62-2.738-5.729-7.019c-0.093-3.587,1.474-7.3,3.834-9.84l-0.237-9.338c-0.069-2.541,1.571-5.246,3.658-6.04
				c2.085-0.793,3.83,0.625,3.896,3.165l0.241,9.341c2.443,0.713,4.168,3.176,4.26,6.766
				C114.602,332.176,111.208,337.776,106.886,339.418 M128.141,281.318L77.394,303.8c-0.196,0.087-0.402,0.129-0.604,0.129
				c-0.575,0-1.121-0.333-1.368-0.892c-0.335-0.752,0.004-1.638,0.762-1.972l50.744-22.483c0.757-0.338,1.643,0.007,1.973,0.762
				C129.235,280.099,128.897,280.982,128.141,281.318"/>
		</defs>
		<clipPath id="SVGID_4_">
			<use xlink:href="#SVGID_3_"  overflow="visible"/>
		</clipPath>
		<g opacity="0.8" clip-path="url(#SVGID_4_)">
			<g>
				<defs>
					<rect id="SVGID_5_" x="-89.003" y="165.69" width="309.428" height="306.851"/>
				</defs>
				<clipPath id="SVGID_6_">
					<use xlink:href="#SVGID_5_"  overflow="visible"/>
				</clipPath>
				<g clip-path="url(#SVGID_6_)">
					<defs>
						<path id="SVGID_7_" d="M0.304,283.656l-22.789,9.251c0,0,1.318,56.271,55.721,57.299c54.401,1.026,66.255,11.048,78.9,26.207
							c12.646,15.159,41.771-101.363,41.771-101.363l-30.19-14.518l-46.892-13.875L0.304,283.656z"/>
					</defs>
					<clipPath id="SVGID_8_">
						<use xlink:href="#SVGID_7_"  overflow="visible"/>
					</clipPath>
					
						<linearGradient id="SVGID_9_" gradientUnits="userSpaceOnUse" x1="0" y1="186.5952" x2="1" y2="186.5952" gradientTransform="matrix(78.0072 -51.2802 51.2802 78.0072 -9541.7646 -14211.1074)">
						<stop  offset="0" style="stop-color:#3665B0"/>
						<stop  offset="1" style="stop-color:#64B8E8"/>
					</linearGradient>
					<polygon clip-path="url(#SVGID_8_)" fill="url(#SVGID_9_)" points="30.741,472.539 220.426,347.844 100.681,165.691 
						-89.003,290.385 					"/>
				</g>
			</g>
		</g>
		<g clip-path="url(#SVGID_4_)">
			<defs>
				<path id="SVGID_10_" d="M74.229,304.009l-58.661-26.424v67.143l58.664,25.983L74.229,304.009z M28.494,328.975l-0.016-0.002
					c-0.011-4.211-2.641-8.372-5.938-9.39l0.002-0.022c3.323,0.912,6.034-1.746,6.069-5.993c-0.035,4.282,2.662,8.55,6.024,9.53
					C31.301,322.125,28.572,324.756,28.494,328.975 M40.652,345.844l-0.012-0.004c-0.008-2.949-1.847-5.862-4.156-6.576v-0.013
					c2.327,0.636,4.226-1.224,4.25-4.198c-0.024,2.999,1.865,5.987,4.218,6.674C42.618,341.046,40.708,342.887,40.652,345.844"/>
			</defs>
			<clipPath id="SVGID_11_">
				<use xlink:href="#SVGID_10_"  overflow="visible"/>
			</clipPath>
			<g opacity="0.8" clip-path="url(#SVGID_11_)">
				<g>
					<defs>
						<rect id="SVGID_12_" x="-102.739" y="170.671" width="280" height="275.764"/>
					</defs>
					<clipPath id="SVGID_13_">
						<use xlink:href="#SVGID_12_"  overflow="visible"/>
					</clipPath>
					<g clip-path="url(#SVGID_13_)">
						<defs>
							<path id="SVGID_14_" d="M-56.775,279.068c-0.901,12.432,14.554,35.357,44.543,45.833
								c29.992,10.479,23.431,15.722,76.471,42.266c53.039,26.546,67.887-32.968,31.417-45.034
								c-36.469-12.065-41.924-54.676-97.222-70.772c-8.587-2.499-15.83-3.554-21.954-3.554
								C-56.833,247.81-56.775,279.068-56.775,279.068"/>
						</defs>
						<clipPath id="SVGID_15_">
							<use xlink:href="#SVGID_14_"  overflow="visible"/>
						</clipPath>
						
							<linearGradient id="SVGID_16_" gradientUnits="userSpaceOnUse" x1="0" y1="186.6802" x2="1" y2="186.6802" gradientTransform="matrix(136.4047 119.215 -68.6405 85.5481 12774.1895 -15716.4297)">
							<stop  offset="0" style="stop-color:#1F4C9F"/>
							<stop  offset="1" style="stop-color:#64B8E8"/>
						</linearGradient>
						<polygon clip-path="url(#SVGID_15_)" fill="url(#SVGID_16_)" points="-126.49,333.571 53.89,491.219 200.939,307.948 
							20.56,150.299 						"/>
					</g>
				</g>
			</g>
		</g>
	</g>
</g>
<g>
	<path fill="#4869B1" d="M37.295,146.393c0.463,0.602,0.81,1.134,0.81,1.92c0,1.735-1.319,2.614-2.915,2.614h-5.089
		c-0.879,0-1.643-0.162-2.336-0.74c-0.625-0.509-1.087-1.342-1.087-2.151c0-0.74,0.417-1.388,1.226-1.388
		c0.671,0,1.087,0.555,1.087,1.18c0,0.693,0.37,0.786,1.018,0.786h5.02c0.185,0,0.763,0.069,0.763-0.277
		c0-0.185-0.324-0.532-0.417-0.671l-7.934-10.201c-0.486-0.625-0.764-1.087-0.764-1.896c0-0.926,0.44-1.712,1.226-2.221
		c0.648-0.417,1.18-0.417,1.92-0.417h4.904c0.879,0,1.619,0.186,2.29,0.764c0.602,0.532,1.087,1.388,1.087,2.197
		c0,0.74-0.37,1.342-1.203,1.342c-0.694,0-1.11-0.439-1.11-1.087c0-0.787-0.393-0.902-1.11-0.902h-4.904
		c-0.255,0-0.787-0.069-0.787,0.324c0,0.208,0.254,0.485,0.347,0.624L37.295,146.393z"/>
	<path fill="#4869B1" d="M53.351,146.116c0,1.596-0.116,2.197-1.411,3.216l-1.342,1.063c-0.462,0.37-1.18,0.995-1.781,0.995h-1.504
		c-0.995,0-1.457-0.648-2.174-1.318l-0.439-0.417v4.465c0,0.764-0.162,1.526-1.11,1.526s-1.11-0.763-1.11-1.526v-14.019
		c0-0.786,0.092-1.643,1.11-1.643c0.902,0,1.11,0.718,1.11,1.458v0.277l0.439-0.394c0.578-0.509,1.458-1.342,2.082-1.342h1.526
		c0.532,0,1.25,0.556,1.851,1.019l1.342,1.041c1.295,1.018,1.411,1.642,1.411,3.215V146.116z M51.13,143.432
		c0-0.416-0.116-0.671-0.462-0.972l-1.666-1.388c-0.208-0.185-0.463-0.394-0.764-0.394H47.66c-0.324,0-0.717,0.417-0.948,0.648
		l-1.388,1.318c-0.462,0.439-0.625,0.693-0.625,1.18V146c0,0.323,0.092,0.74,0.324,0.948l1.689,1.596
		c0.324,0.324,0.67,0.625,0.948,0.625h0.578c0.301,0,0.555-0.208,0.764-0.394l1.666-1.388c0.347-0.301,0.462-0.556,0.462-0.972
		V143.432z"/>
	<path fill="#4869B1" d="M61.726,140.679c-0.647,0-1.527-0.139-1.527-1.11c0-0.948,0.787-1.11,1.527-1.11h3.054
		c1.157,0,1.989,0.116,2.868,0.995c0.856,0.855,0.972,1.526,0.995,2.637l0.231,7.542c0.023,0.647-0.301,1.295-1.041,1.295
		c-0.578,0-1.156-0.485-1.133-1.11l-1.527,0.786c-0.625,0.324-0.647,0.324-1.365,0.324H61.68c-0.995,0-1.711-0.115-2.521-0.786
		c-0.925-0.764-1.157-1.573-1.157-2.729v-0.972c0-1.064,0.254-1.735,1.087-2.476c0.764-0.671,1.62-0.833,2.591-0.833h4.766v-0.509
		c0-1.665-0.37-1.943-1.966-1.943H61.726z M61.703,145.352c-0.602,0-1.48,0.162-1.48,0.972v1.48c0,0.74,0.902,0.902,1.434,0.902
		h2.452l2.452-1.272v-0.485c0-1.227-0.347-1.597-1.573-1.597H61.703z"/>
	<path fill="#4869B1" d="M73.524,143.618c0-1.365,0.255-2.036,1.319-2.915l1.642-1.364c1.041-0.856,1.573-0.88,2.869-0.88h3.516
		c0.74,0,1.527,0.162,1.527,1.11c0,0.972-0.88,1.11-1.527,1.11h-3.909c-0.439,0-0.879,0.231-1.272,0.556l-1.342,1.134
		c-0.347,0.277-0.602,0.509-0.602,0.948v2.753c0,0.439,0.255,0.671,0.602,0.948l1.342,1.134c0.394,0.323,0.833,0.555,1.272,0.555
		h3.909c0.647,0,1.527,0.139,1.527,1.11c0,0.948-0.787,1.11-1.527,1.11h-3.516c-1.296,0-1.828-0.023-2.869-0.879l-1.642-1.365
		c-1.064-0.879-1.319-1.55-1.319-2.914V143.618z"/>
	<path fill="#4869B1" d="M93.12,150.927c-0.926,0-1.296,0-1.989-0.602l-0.948-0.833c-0.88-0.786-1.134-1.295-1.134-2.498v-4.279
		c0-1.18,0.162-1.874,1.087-2.66l0.787-0.671c1.041-0.902,1.55-0.926,2.452-0.926h2.035c1.087,0,1.596,0.116,2.452,0.811
		l0.902,0.717c1.018,0.81,1.156,1.665,1.156,2.892v1.781c0,1.272-0.208,1.642-1.526,1.642H91.27v0.74
		c0,0.209,0.162,0.486,0.324,0.648l0.555,0.602c0.301,0.323,0.74,0.416,1.48,0.416h4.766c0.74,0,1.526,0.162,1.526,1.11
		c0,0.972-0.879,1.11-1.526,1.11H93.12z M91.27,144.08H97.7v-1.341c0-0.417,0.023-0.764-0.277-1.041l-0.856-0.74
		c-0.277-0.255-0.717-0.278-1.063-0.278h-1.874c-0.416,0-0.764,0-1.134,0.255l-0.763,0.556c-0.278,0.208-0.463,0.369-0.463,1.018
		V144.08z"/>
</g>
<g>
	<path fill="#4869B1" d="M60.338,162.727c0.439,0.902,0.602,1.573,0.602,2.568c0,1.11-0.301,1.804-0.764,2.752l-2.128,4.257
		c-0.555,1.11-1.48,1.92-2.822,1.92s-2.267-0.81-2.822-1.92l-2.128-4.257c-0.463-0.948-0.764-1.642-0.764-2.752
		c0-0.995,0.162-1.666,0.602-2.568l2.313-4.603c0.555-1.088,1.503-1.897,2.799-1.897s2.244,0.81,2.799,1.897L60.338,162.727z
		 M56.012,159.234c-0.185-0.369-0.301-0.693-0.787-0.693s-0.602,0.324-0.787,0.693l-2.082,4.188
		c-0.347,0.671-0.532,1.11-0.532,1.874c0,0.601,0.139,1.018,0.393,1.526l2.221,4.396c0.162,0.323,0.324,0.693,0.787,0.693
		s0.625-0.37,0.787-0.693l2.221-4.396c0.254-0.509,0.393-0.926,0.393-1.526c0-0.764-0.185-1.203-0.532-1.874L56.012,159.234z"/>
	<path fill="#4869B1" d="M71.859,169.088l1.203,2.06l0.693-2.06l0.231-5.736c0.023-0.764,0.162-1.597,1.11-1.597
		c0.972,0,1.11,0.833,1.088,1.597l-0.231,6.176l-1.088,3.285c-0.231,0.671-0.347,1.411-1.133,1.411h-0.856
		c-0.393,0-0.717-0.416-0.925-0.717l-1.203-1.805l-1.203,1.805c-0.208,0.301-0.532,0.717-0.925,0.717h-0.856
		c-0.787,0-0.902-0.74-1.134-1.411l-1.087-3.285l-0.231-6.176c-0.023-0.764,0.116-1.597,1.087-1.597c0.948,0,1.087,0.833,1.11,1.597
		l0.231,5.736l0.694,2.06l1.203-2.06v-2.035c0-0.764,0.162-1.55,1.11-1.55s1.11,0.786,1.11,1.55V169.088z"/>
	<path fill="#4869B1" d="M83.057,166.244v6.454c0,0.763-0.162,1.526-1.11,1.526s-1.11-0.764-1.11-1.526v-9.3
		c0-0.81,0.093-1.643,1.11-1.643c0.995,0,1.11,0.833,1.11,1.62v0.254v0.046l1.805-1.18c0.578-0.37,1.202-0.74,1.92-0.74h1.642
		c0.856,0,1.389,0.231,2.06,0.811c0.994,0.855,0.948,1.804,0.994,3.007l0.231,6.985c0.023,0.787-0.093,1.666-1.087,1.666
		c-0.902,0-1.088-0.764-1.11-1.504l-0.231-6.847c-0.047-1.365-0.162-1.897-1.504-1.897h-0.74c-0.231,0-0.463,0.07-0.693,0.209
		L83.057,166.244z"/>
	<path fill="#4869B1" d="M100.431,174.224c-0.926,0-1.296,0-1.989-0.602l-0.948-0.833c-0.88-0.786-1.134-1.295-1.134-2.498v-4.279
		c0-1.18,0.162-1.874,1.087-2.66l0.787-0.671c1.041-0.902,1.55-0.926,2.452-0.926h2.035c1.087,0,1.596,0.116,2.452,0.811
		l0.902,0.717c1.018,0.81,1.156,1.665,1.156,2.892v1.781c0,1.272-0.208,1.642-1.526,1.642H98.58v0.74
		c0,0.209,0.162,0.486,0.324,0.648l0.555,0.602c0.301,0.323,0.74,0.416,1.48,0.416h4.766c0.74,0,1.526,0.162,1.526,1.11
		c0,0.972-0.879,1.11-1.526,1.11H100.431z M98.58,167.376h6.431v-1.341c0-0.417,0.023-0.764-0.277-1.041l-0.856-0.74
		c-0.277-0.255-0.717-0.278-1.063-0.278h-1.874c-0.416,0-0.764,0-1.134,0.255l-0.763,0.556c-0.278,0.208-0.463,0.369-0.463,1.018
		V167.376z"/>
	<path fill="#4869B1" d="M111.883,163.398c0-0.81,0.093-1.643,1.11-1.643c0.879,0,1.11,0.74,1.11,1.48v0.902l1.734-1.434
		c0.625-0.51,1.272-0.949,1.967-0.949h1.781c0.855,0,1.573,0.278,2.174,0.88c0.74,0.74,0.995,1.503,0.995,2.521
		c0,0.764-0.139,1.551-1.087,1.551c-0.81,0-1.134-0.648-1.134-1.365c0-0.37,0-0.647-0.231-0.972
		c-0.277-0.394-0.81-0.394-1.342-0.394h-0.647c-0.416,0-0.717,0.209-1.11,0.532l-3.1,2.568v5.621c0,0.763-0.162,1.526-1.11,1.526
		s-1.11-0.764-1.11-1.526V163.398z"/>
</g>
<g>
	<defs>
		<rect id="SVGID_17_" width="146.993" height="186.595"/>
	</defs>
	<clipPath id="SVGID_18_">
		<use xlink:href="#SVGID_17_"  overflow="visible"/>
	</clipPath>
	
		<path clip-path="url(#SVGID_18_)" fill="none" stroke="#68A9DD" stroke-linecap="round" stroke-linejoin="round" stroke-miterlimit="10" d="
		M103.387,133.542c-0.021,2.312-1.494,3.756-3.304,3.262v0.011c1.794,0.555,3.225,2.818,3.23,5.109l0.01,0.003
		c0.042-2.297,1.527-3.728,3.34-3.198C104.835,138.194,103.366,135.872,103.387,133.542"/>
	<path clip-path="url(#SVGID_18_)" fill="#68A9DD" d="M103.387,133.542c-0.021,2.312-1.494,3.756-3.304,3.262v0.011
		c1.794,0.555,3.225,2.818,3.23,5.109l0.01,0.003c0.042-2.297,1.527-3.728,3.34-3.198
		C104.835,138.194,103.366,135.872,103.387,133.542"/>
	
		<path clip-path="url(#SVGID_18_)" fill="none" stroke="#68A9DD" stroke-linecap="round" stroke-linejoin="round" stroke-miterlimit="10" d="
		M43.619,165.843c-0.02,2.313-1.495,3.757-3.304,3.263v0.01c1.795,0.555,3.225,2.819,3.231,5.11l0.009,0.003
		c0.043-2.297,1.527-3.729,3.341-3.198C45.067,170.496,43.599,168.173,43.619,165.843"/>
	<path clip-path="url(#SVGID_18_)" fill="#68A9DD" d="M43.619,165.843c-0.02,2.313-1.495,3.757-3.304,3.263v0.01
		c1.795,0.555,3.225,2.819,3.231,5.11l0.009,0.003c0.043-2.297,1.527-3.729,3.341-3.198
		C45.067,170.496,43.599,168.173,43.619,165.843"/>
</g>
<g>
	<defs>
		<path id="SVGID_19_" d="M37.98,94.838c0.014,0.004,0.03,0.004,0.043,0.008v0.009C38.01,94.853,37.994,94.842,37.98,94.838
			 M40.734,92.793c-0.024,2.998,1.866,5.985,4.217,6.674c-2.333-0.681-4.243,1.16-4.299,4.116l-0.012-0.004
			c-0.008-2.948-1.847-5.861-4.156-6.574V96.99c0.308,0.084,0.609,0.125,0.899,0.125C39.282,97.115,40.713,95.375,40.734,92.793
			 M28.611,71.308c-0.035,4.282,2.662,8.549,6.025,9.53c-3.335-0.973-6.064,1.658-6.142,5.877l-0.016-0.002
			c-0.011-4.212-2.642-8.372-5.938-9.391l0.001-0.021c0.441,0.121,0.872,0.179,1.286,0.179
			C26.537,77.48,28.581,74.991,28.611,71.308 M98.814,90.596c-0.093-3.587,1.474-7.299,3.834-9.84l-0.237-9.338
			c-0.068-2.542,1.571-5.246,3.658-6.04c2.085-0.792,3.83,0.625,3.896,3.165l0.241,9.341c2.443,0.713,4.168,3.176,4.261,6.764
			c0.135,5.267-3.259,10.868-7.58,12.508c-0.813,0.31-1.601,0.457-2.345,0.457C101.327,97.614,98.924,94.875,98.814,90.596
			 M72.732,122.931V64.783c0-0.829,0.669-1.498,1.497-1.498c0.826,0,1.497,0.669,1.497,1.498v58.148
			c0,0.829-0.671,1.496-1.497,1.496C73.401,124.427,72.732,123.76,72.732,122.931 M71.067,61.539L20.302,39.058
			c-0.755-0.336-1.094-1.219-0.759-1.975c0.331-0.755,1.211-1.099,1.972-0.761l50.764,22.484c0.756,0.334,1.094,1.218,0.759,1.971
			c-0.245,0.56-0.793,0.893-1.367,0.893C71.468,61.67,71.262,61.626,71.067,61.539 M75.421,60.777
			c-0.336-0.753,0.004-1.637,0.762-1.971l50.744-22.484c0.757-0.338,1.643,0.006,1.973,0.761c0.336,0.756-0.002,1.639-0.759,1.975
			L77.395,61.539c-0.197,0.087-0.403,0.131-0.605,0.131C76.214,61.67,75.667,61.337,75.421,60.777 M72.59,12.279L18.307,34.218
			c-1.655,0.669-2.739,2.275-2.739,4.061v61.338c0,1.733,1.023,3.304,2.607,4.005l54.269,24.037c1.137,0.504,2.434,0.501,3.569-0.01
			l54.293-24.399c1.573-0.707,2.584-2.271,2.584-3.995V38.27c0-1.786-1.084-3.392-2.738-4.061l-54.279-21.93
			c-0.527-0.212-1.084-0.319-1.641-0.319C73.673,11.96,73.116,12.067,72.59,12.279"/>
	</defs>
	<clipPath id="SVGID_20_">
		<use xlink:href="#SVGID_19_"  overflow="visible"/>
	</clipPath>
	<g opacity="0.8" clip-path="url(#SVGID_20_)">
		<g>
			<defs>
				<rect id="SVGID_21_" x="-89.003" y="-76.57" width="309.428" height="306.85"/>
			</defs>
			<clipPath id="SVGID_22_">
				<use xlink:href="#SVGID_21_"  overflow="visible"/>
			</clipPath>
			<g clip-path="url(#SVGID_22_)">
				<defs>
					<path id="SVGID_23_" d="M0.304,41.396l-22.789,9.25c0,0,1.318,56.271,55.721,57.299c54.401,1.027,66.255,11.048,78.9,26.207
						c12.646,15.16,41.771-101.363,41.771-101.363l-30.19-14.517L76.825,4.396L0.304,41.396z"/>
				</defs>
				<clipPath id="SVGID_24_">
					<use xlink:href="#SVGID_23_"  overflow="visible"/>
				</clipPath>
				
					<linearGradient id="SVGID_25_" gradientUnits="userSpaceOnUse" x1="0" y1="186.5952" x2="1" y2="186.5952" gradientTransform="matrix(78.0072 -51.2802 51.2802 78.0072 -9541.7646 -14453.373)">
					<stop  offset="0" style="stop-color:#3665B0"/>
					<stop  offset="1" style="stop-color:#64B8E8"/>
				</linearGradient>
				<polygon clip-path="url(#SVGID_24_)" fill="url(#SVGID_25_)" points="30.741,230.279 220.426,105.584 100.681,-76.571 
					-89.004,48.124 				"/>
			</g>
		</g>
	</g>
	<g opacity="0.8" clip-path="url(#SVGID_20_)">
		<g>
			<defs>
				<rect id="SVGID_26_" x="-89.784" y="-23.224" width="305.243" height="308.097"/>
			</defs>
			<clipPath id="SVGID_27_">
				<use xlink:href="#SVGID_26_"  overflow="visible"/>
			</clipPath>
			<g clip-path="url(#SVGID_27_)">
				<defs>
					<path id="SVGID_28_" d="M79.411,89.033c-49.884,21.725-64.835,17.553-82.645,9.038c-17.79-8.504,4.19,109.264,4.244,109.551
						v0.001l33.493,0.623l48.41-6.917l54.157-65.51l16.864-17.902l-0.007-0.016c-0.401-0.813-17.105-34.283-50.432-34.288
						C96.253,83.613,88.23,85.193,79.411,89.033"/>
				</defs>
				<clipPath id="SVGID_29_">
					<use xlink:href="#SVGID_28_"  overflow="visible"/>
				</clipPath>
				
					<linearGradient id="SVGID_30_" gradientUnits="userSpaceOnUse" x1="0" y1="186.4771" x2="1" y2="186.4771" gradientTransform="matrix(-49.5597 79.1114 -79.1114 -49.5597 14849.3096 9339.0254)">
					<stop  offset="0" style="stop-color:#3665B0"/>
					<stop  offset="1" style="stop-color:#64B8E8"/>
				</linearGradient>
				<polygon clip-path="url(#SVGID_29_)" fill="url(#SVGID_30_)" points="28.286,4.9 -77.095,173.119 104.625,286.958 
					210.006,118.74 				"/>
			</g>
		</g>
	</g>
</g>
<g>
	<defs>
		<path id="SVGID_31_" d="M72.61,12.271L18.279,34.229c-0.765,0.315-1.406,0.832-1.873,1.473l3.125,1.408
			c0.004-0.009,0.008-0.018,0.012-0.027c0.331-0.755,1.211-1.099,1.972-0.761l50.764,22.484c0.756,0.334,1.094,1.218,0.759,1.971
			c-0.055,0.126-0.126,0.24-0.208,0.341l1.398,0.631l1.4-0.631c-0.082-0.102-0.153-0.216-0.208-0.341
			c-0.336-0.753,0.004-1.637,0.762-1.971l50.744-22.484c0.757-0.338,1.643,0.006,1.973,0.761c0.004,0.009,0.007,0.017,0.011,0.026
			l3.142-1.416c-0.473-0.649-1.124-1.17-1.9-1.484l-54.279-21.93c-0.527-0.212-1.084-0.319-1.642-0.319
			C73.68,11.96,73.13,12.064,72.61,12.271"/>
	</defs>
	<clipPath id="SVGID_32_">
		<use xlink:href="#SVGID_31_"  overflow="visible"/>
	</clipPath>
	<g opacity="0.8" clip-path="url(#SVGID_32_)">
		<g>
			<defs>
				<rect id="SVGID_33_" x="54.971" y="-18.502" width="131.869" height="94.601"/>
			</defs>
			<clipPath id="SVGID_34_">
				<use xlink:href="#SVGID_33_"  overflow="visible"/>
			</clipPath>
			<g clip-path="url(#SVGID_34_)">
				<defs>
					<path id="SVGID_35_" d="M93.313,9.472c-1.412,1.088-2.697,2.229-3.857,3.412l-0.298,0.309
						c-11.226,11.745-10.148,27.495,3.417,37.03c1.421,0.999,2.929,1.894,4.506,2.686l0.094,0.047
						c15.135,7.543,36.693,5.619,50.672-5.156c15.467-11.923,15.798-30.167,0.738-40.75c-1.38-0.97-2.841-1.842-4.37-2.616
						l-0.357-0.179c-6.083-3.003-13.19-4.485-20.424-4.485C112.679-0.229,101.649,3.048,93.313,9.472"/>
				</defs>
				<clipPath id="SVGID_36_">
					<use xlink:href="#SVGID_35_"  overflow="visible"/>
				</clipPath>
				
					<linearGradient id="SVGID_37_" gradientUnits="userSpaceOnUse" x1="0" y1="186.603" x2="1" y2="186.603" gradientTransform="matrix(33.4705 -53.8292 70.6416 20.8616 -13077.3086 -3836.7976)">
					<stop  offset="0" style="stop-color:#4A5BA7"/>
					<stop  offset="1" style="stop-color:#2AB5EA"/>
				</linearGradient>
				<polygon clip-path="url(#SVGID_36_)" fill="url(#SVGID_37_)" points="150.348,81.884 195.548,9.191 91.23,-21.615 46.03,51.078 
									"/>
			</g>
		</g>
	</g>
	<g opacity="0.8" clip-path="url(#SVGID_32_)">
		<g>
			<defs>
				<rect id="SVGID_38_" x="-61.795" y="-31.189" width="257.531" height="242.807"/>
			</defs>
			<clipPath id="SVGID_39_">
				<use xlink:href="#SVGID_38_"  overflow="visible"/>
			</clipPath>
		</g>
	</g>
	<g opacity="0.8" clip-path="url(#SVGID_32_)">
		<g>
			<defs>
				<rect id="SVGID_40_" x="-90.224" y="-13.863" width="246.797" height="132.827"/>
			</defs>
			<clipPath id="SVGID_41_">
				<use xlink:href="#SVGID_40_"  overflow="visible"/>
			</clipPath>
			<g clip-path="url(#SVGID_41_)">
				<defs>
					<path id="SVGID_42_" d="M-48.636,23.592c-0.05,0.088-0.097,0.178-0.139,0.27l-0.049,0.112
						c-2.104,5.13,8.544,16.898,33.812,26.327c25.919,9.674,19.037,10.631,63.586,31.007c44.547,20.376,67.792-1.214,36.163-12.703
						C53.111,57.117,54.947,38.762,6.638,22.239c-15.27-5.224-26.408-7.009-34.503-7.009C-45.377,15.23-48.636,23.592-48.636,23.592
						"/>
				</defs>
				<clipPath id="SVGID_43_">
					<use xlink:href="#SVGID_42_"  overflow="visible"/>
				</clipPath>
				
					<linearGradient id="SVGID_44_" gradientUnits="userSpaceOnUse" x1="0" y1="186.6226" x2="1" y2="186.6226" gradientTransform="matrix(99.4393 115.8243 -115.8243 99.4393 21593.6426 -18562.752)">
					<stop  offset="0" style="stop-color:#1F4C9F"/>
					<stop  offset="1" style="stop-color:#64B8E8"/>
				</linearGradient>
				<polygon clip-path="url(#SVGID_43_)" fill="url(#SVGID_44_)" points="-93.657,51.915 20.059,184.368 159.095,65 45.379,-67.453 
									"/>
			</g>
		</g>
	</g>
</g>
<g>
	<defs>
		<path id="SVGID_45_" d="M98.814,90.596c-0.093-3.587,1.474-7.299,3.834-9.84l-0.237-9.338c-0.068-2.542,1.571-5.246,3.658-6.04
			c2.085-0.792,3.83,0.625,3.896,3.165l0.241,9.341c2.443,0.713,4.168,3.176,4.261,6.764c0.135,5.267-3.259,10.868-7.58,12.508
			c-0.813,0.31-1.601,0.457-2.345,0.457C101.327,97.614,98.924,94.875,98.814,90.596 M128.91,37.109
			c0.316,0.75-0.021,1.617-0.77,1.949L77.395,61.539c-0.197,0.087-0.403,0.131-0.605,0.131c-0.446,0-0.875-0.201-1.16-0.552
			l-1.4,0.631v1.536c0.827,0,1.497,0.669,1.497,1.498v58.148c0,0.828-0.67,1.495-1.494,1.496v3.607
			c0.607-0.001,1.215-0.131,1.781-0.385l54.293-24.399c1.573-0.707,2.584-2.271,2.584-3.995V38.27c0-0.947-0.305-1.844-0.838-2.577
			L128.91,37.109z"/>
	</defs>
	<clipPath id="SVGID_46_">
		<use xlink:href="#SVGID_45_"  overflow="visible"/>
	</clipPath>
	<g opacity="0.8" clip-path="url(#SVGID_46_)">
		<g>
			<defs>
				<rect id="SVGID_47_" x="-81.264" y="10.786" width="283.854" height="183.05"/>
			</defs>
			<clipPath id="SVGID_48_">
				<use xlink:href="#SVGID_47_"  overflow="visible"/>
			</clipPath>
			<g clip-path="url(#SVGID_48_)">
				<defs>
					<path id="SVGID_49_" d="M131.538,59.79c-3.122,0-7.019,1.169-11.702,3.788c-16.672,9.324-27.319,7.182-39.083,5.041
						c-14.419-2.625-30.519-5.25-61.452,13.239c-56.173,33.577-54.248,75.524-54.248,75.524c-0.007,0.229-0.008,0.461-0.005,0.688
						l0.008,0.252c0.44,12.183,16.842,19.671,46.619,3.55c30.538-16.534,24.173-5.688,78.517-27.237
						c33.707-13.366,51.283-45.474,50.914-62.978l-0.009-0.297c-0.232-6.984-3.379-11.569-9.557-11.569
						C131.539,59.79,131.538,59.79,131.538,59.79"/>
				</defs>
				<clipPath id="SVGID_50_">
					<use xlink:href="#SVGID_49_"  overflow="visible"/>
				</clipPath>
				
					<linearGradient id="SVGID_51_" gradientUnits="userSpaceOnUse" x1="0" y1="186.7104" x2="1" y2="186.7104" gradientTransform="matrix(141.8863 -6.5359 -65.308 142.9242 12172.8848 -26563.1973)">
					<stop  offset="0" style="stop-color:#1F4C9F"/>
					<stop  offset="1" style="stop-color:#64B8E8"/>
				</linearGradient>
				<polygon clip-path="url(#SVGID_50_)" fill="url(#SVGID_51_)" points="-95.879,188.925 141.475,177.993 200.482,48.857 
					-36.872,59.79 				"/>
			</g>
		</g>
	</g>
	<g opacity="0.8" clip-path="url(#SVGID_46_)">
		<g>
			<defs>
				<rect id="SVGID_52_" x="74.616" y="-35.873" width="77.701" height="108.118"/>
			</defs>
			<clipPath id="SVGID_53_">
				<use xlink:href="#SVGID_52_"  overflow="visible"/>
			</clipPath>
			<g clip-path="url(#SVGID_53_)">
				<defs>
					<path id="SVGID_54_" d="M86.139,8.737c-0.587,1.937-1.056,3.875-1.408,5.801l-0.027,0.146
						c-3.354,18.525,3.844,35.918,17.52,40.435c15.134,4.998,32.467-7.663,38.716-28.28c0.571-1.886,1.03-3.772,1.381-5.648
						l0.083-0.459c3.283-18.465-3.911-35.769-17.547-40.276c-1.384-0.457-2.784-0.766-4.195-0.935l-0.357-0.04
						c-0.747-0.077-1.495-0.115-2.245-0.115C104.852-20.633,91.467-8.838,86.139,8.737"/>
				</defs>
				<clipPath id="SVGID_55_">
					<use xlink:href="#SVGID_54_"  overflow="visible"/>
				</clipPath>
				
					<linearGradient id="SVGID_56_" gradientUnits="userSpaceOnUse" x1="0" y1="186.6167" x2="1" y2="186.6167" gradientTransform="matrix(59.25 -9.0773 -2.0976 76.2847 475.0703 -14211.6094)">
					<stop  offset="0" style="stop-color:#4A5BA7"/>
					<stop  offset="1" style="stop-color:#2AB5EA"/>
				</linearGradient>
				<polygon clip-path="url(#SVGID_55_)" fill="url(#SVGID_56_)" points="78.848,70.357 145.686,60.117 148.188,-30.874 
					81.35,-20.634 				"/>
			</g>
		</g>
	</g>
</g>
<g>
	<defs>
		<path id="SVGID_57_" d="M37.98,94.838c0.014,0.004,0.03,0.004,0.043,0.008v0.009C38.01,94.853,37.994,94.842,37.98,94.838
			 M40.734,92.793c-0.024,2.998,1.866,5.985,4.217,6.674c-2.333-0.681-4.243,1.16-4.299,4.116l-0.012-0.004
			c-0.008-2.948-1.847-5.861-4.156-6.574V96.99c0.308,0.084,0.609,0.125,0.899,0.125C39.282,97.115,40.713,95.375,40.734,92.793
			 M28.611,71.308c-0.035,4.282,2.662,8.549,6.025,9.53c-3.335-0.973-6.064,1.658-6.142,5.877l-0.016-0.002
			c-0.011-4.212-2.642-8.372-5.938-9.391l0.001-0.021c0.441,0.121,0.872,0.179,1.286,0.179
			C26.537,77.48,28.581,74.991,28.611,71.308 M98.814,90.596c-0.093-3.587,1.474-7.299,3.834-9.84l-0.237-9.338
			c-0.068-2.542,1.571-5.246,3.658-6.04c2.085-0.792,3.83,0.625,3.896,3.165l0.241,9.341c2.443,0.713,4.168,3.176,4.261,6.764
			c0.135,5.267-3.259,10.868-7.58,12.508c-0.813,0.31-1.601,0.457-2.345,0.457C101.327,97.614,98.924,94.875,98.814,90.596
			 M72.732,122.931V64.783c0-0.829,0.669-1.498,1.497-1.498c0.826,0,1.497,0.669,1.497,1.498v58.148
			c0,0.829-0.671,1.496-1.497,1.496C73.401,124.427,72.732,123.76,72.732,122.931 M71.067,61.539L20.302,39.058
			c-0.755-0.336-1.094-1.219-0.759-1.975c0.331-0.755,1.211-1.099,1.972-0.761l50.764,22.484c0.756,0.334,1.094,1.218,0.759,1.971
			c-0.245,0.56-0.793,0.893-1.367,0.893C71.468,61.67,71.262,61.626,71.067,61.539 M75.421,60.777
			c-0.336-0.753,0.004-1.637,0.762-1.971l50.744-22.484c0.757-0.338,1.643,0.006,1.973,0.761c0.336,0.756-0.002,1.639-0.759,1.975
			L77.395,61.539c-0.197,0.087-0.403,0.131-0.605,0.131C76.214,61.67,75.667,61.337,75.421,60.777 M72.59,12.279L18.307,34.218
			c-1.655,0.669-2.739,2.275-2.739,4.061v61.338c0,1.733,1.023,3.304,2.607,4.005l54.269,24.037c1.137,0.504,2.434,0.501,3.569-0.01
			l54.293-24.399c1.573-0.707,2.584-2.271,2.584-3.995V38.27c0-1.786-1.084-3.392-2.738-4.061l-54.279-21.93
			c-0.527-0.212-1.084-0.319-1.641-0.319C73.673,11.96,73.116,12.067,72.59,12.279"/>
	</defs>
	<clipPath id="SVGID_58_">
		<use xlink:href="#SVGID_57_"  overflow="visible"/>
	</clipPath>
	<path clip-path="url(#SVGID_58_)" fill="#FFFFFF" d="M21.633,66.601c0,0.025,0.006,0.052,0.006,0.08
		c0-0.028,0.005-0.051,0.005-0.077L21.633,66.601z"/>
	<path clip-path="url(#SVGID_58_)" fill="#FFFFFF" d="M27.664,76.211c0.022,0.005,0.041,0.02,0.062,0.025v-0.015
		C27.705,76.214,27.686,76.216,27.664,76.211"/>
	<path clip-path="url(#SVGID_58_)" fill="#FFFFFF" d="M33.758,88.111c0,0.019,0.003,0.036,0.003,0.056
		c0-0.02,0.005-0.035,0.005-0.055L33.758,88.111z"/>
</g>
<g>
	<defs>
		<path id="SVGID_59_" d="M37.98,94.838c0.014,0.004,0.03,0.004,0.043,0.008v0.009C38.01,94.853,37.994,94.842,37.98,94.838
			 M40.734,92.793c0,0.024,0,0.047,0,0.071c0.005,2.974,1.884,5.921,4.217,6.603c-2.333-0.681-4.243,1.16-4.299,4.116l-0.012-0.004
			c-0.008-2.948-1.847-5.861-4.156-6.574V96.99C38.812,97.627,40.71,95.768,40.734,92.793L40.734,92.793 M28.611,71.308
			c0,0.033,0,0.067,0,0.1c0.007,4.248,2.688,8.456,6.025,9.43c-3.335-0.973-6.064,1.658-6.142,5.877l-0.016-0.002
			c-0.011-4.212-2.642-8.372-5.938-9.391l0.001-0.021c0.441,0.12,0.872,0.179,1.286,0.179C26.537,77.48,28.58,74.991,28.611,71.308
			 M15.568,38.279v61.338c0,1.733,1.023,3.304,2.607,4.005l28.073,12.434l26.253,11.628c0.553,0.235,1.142,0.353,1.73,0.351v-3.607
			c-0.001,0-0.001,0-0.003,0c-0.827,0-1.497-0.667-1.497-1.496V64.783c0-0.829,0.669-1.498,1.497-1.498l0,0v-1.536l-1.398-0.631
			c-0.285,0.351-0.714,0.552-1.159,0.552c-0.203,0-0.409-0.044-0.604-0.131L20.302,39.058c-0.746-0.332-1.086-1.198-0.771-1.948
			l-3.125-1.408C15.873,36.435,15.568,37.332,15.568,38.279"/>
	</defs>
	<clipPath id="SVGID_60_">
		<use xlink:href="#SVGID_59_"  overflow="visible"/>
	</clipPath>
	<g opacity="0.8" clip-path="url(#SVGID_60_)">
		<g>
			<defs>
				<rect id="SVGID_61_" x="-102.739" y="-71.59" width="280" height="275.764"/>
			</defs>
			<clipPath id="SVGID_62_">
				<use xlink:href="#SVGID_61_"  overflow="visible"/>
			</clipPath>
			<g clip-path="url(#SVGID_62_)">
				<defs>
					<path id="SVGID_63_" d="M-56.775,36.808c-0.901,12.431,14.554,35.357,44.543,45.833c29.992,10.477,23.431,15.721,76.471,42.265
						c53.039,26.547,67.887-32.968,31.417-45.034C59.186,67.808,53.731,25.196-1.567,9.1c-8.587-2.5-15.83-3.554-21.954-3.554
						C-56.833,5.55-56.775,36.808-56.775,36.808"/>
				</defs>
				<clipPath id="SVGID_64_">
					<use xlink:href="#SVGID_63_"  overflow="visible"/>
				</clipPath>
				
					<linearGradient id="SVGID_65_" gradientUnits="userSpaceOnUse" x1="0" y1="186.6792" x2="1" y2="186.6792" gradientTransform="matrix(136.4047 119.215 -68.6405 85.5481 12774.1895 -15958.6797)">
					<stop  offset="0" style="stop-color:#1F4C9F"/>
					<stop  offset="1" style="stop-color:#64B8E8"/>
				</linearGradient>
				<polygon clip-path="url(#SVGID_64_)" fill="url(#SVGID_65_)" points="-126.49,91.311 53.89,248.959 200.939,65.688 
					20.56,-91.96 				"/>
			</g>
		</g>
	</g>
</g>
<rect fill="none" width="146.993" height="186.595"/>
</svg>
