<?xml version="1.0" encoding="utf-8"?>
<!-- Generator: Adobe Illustrator 15.1.0, SVG Export Plug-In . SVG Version: 6.00 Build 0)  -->
<!DOCTYPE svg PUBLIC "-//W3C//DTD SVG 1.1//EN" "http://www.w3.org/Graphics/SVG/1.1/DTD/svg11.dtd">
<svg version="1.1" id="圖層_1" xmlns="http://www.w3.org/2000/svg" xmlns:xlink="http://www.w3.org/1999/xlink" x="0px" y="0px"
	 width="50px" height="50px" viewBox="0 0 50 50" enable-background="new 0 0 50 50" xml:space="preserve">
<circle fill="none" stroke="#3577BC" stroke-linecap="round" stroke-linejoin="round" stroke-miterlimit="10" cx="30.344" cy="30.656" r="9.156"/>
<path fill="none" stroke="#3577BC" stroke-linecap="round" stroke-linejoin="round" stroke-miterlimit="10" d="M27.239,22.04
	c0,0-0.833,3.116,0.729,2.585s1.781-1.406,3.344-1.656s2.448-0.809,2.448-0.809"/>
<path fill="none" stroke="#3577BC" stroke-linecap="round" stroke-linejoin="round" stroke-miterlimit="10" d="M33.372,22.362
	c0,0,0.44,2.042-0.278,2.324s-1.281,0.064-1.469-0.249s-0.656,0.344-0.25,1.281s-0.281,1.875-1.188,1.375s-1.438-0.783-1.281,0.14
	s-1.375,1.548-0.25,1.798s1.438-0.844,1.938,0.844s2.48-1.125,2.912,0S34.625,32.25,36.25,32s0.188-1.969,1.281-2.375
	s0.18,0.779,1.949,0.437"/>
<path fill="none" stroke="#3577BC" stroke-linecap="round" stroke-linejoin="round" stroke-miterlimit="10" d="M22.318,35.066
	c0,0,3.12-3.379,5.276-2.191s2.344,0.25,3.625,0.688s0.063,1.781,0.938,1.813s2.625-0.219,2.156,0.719s-1.814,2.113-0.829,3.166"/>
<circle fill="none" stroke="#3577BC" stroke-linecap="round" stroke-linejoin="round" stroke-miterlimit="10" cx="4.934" cy="12.732" r="4.309"/>
<line fill="none" stroke="#3577BC" stroke-linecap="round" stroke-linejoin="round" stroke-miterlimit="10" x1="1.317" y1="10.392" x2="5.958" y2="10.392"/>
<line fill="none" stroke="#3577BC" stroke-linecap="round" stroke-linejoin="round" stroke-miterlimit="10" x1="3.292" y1="12.732" x2="0.625" y2="12.732"/>
<line fill="none" stroke="#3577BC" stroke-linecap="round" stroke-linejoin="round" stroke-miterlimit="10" x1="4.934" y1="15.292" x2="1.317" y2="15.292"/>
<line fill="none" stroke="#3577BC" stroke-linecap="round" stroke-linejoin="round" stroke-miterlimit="10" x1="5.958" y1="13.917" x2="9.056" y2="13.917"/>
<line fill="none" stroke="#3577BC" stroke-linecap="round" stroke-linejoin="round" stroke-miterlimit="10" x1="7.167" y1="11.667" x2="9.056" y2="11.667"/>
<rect x="45.864" y="38.833" transform="matrix(0.7074 0.7069 -0.7069 0.7074 41.8497 -21.4604)" fill="none" stroke="#3577BC" stroke-linecap="round" stroke-linejoin="round" stroke-miterlimit="10" width="1.958" height="1.958"/>
<line fill="none" stroke="#3577BC" stroke-linecap="round" stroke-linejoin="round" stroke-miterlimit="10" x1="46.843" y1="38.428" x2="46.843" y2="37.125"/>
<line fill="none" stroke="#3577BC" stroke-linecap="round" stroke-linejoin="round" stroke-miterlimit="10" x1="46.843" y1="41.196" x2="46.843" y2="42.499"/>
<line fill="none" stroke="#3577BC" stroke-linecap="round" stroke-linejoin="round" stroke-miterlimit="10" x1="45.458" y1="39.813" x2="44.155" y2="39.813"/>
<line fill="none" stroke="#3577BC" stroke-linecap="round" stroke-linejoin="round" stroke-miterlimit="10" x1="48.227" y1="39.813" x2="49.529" y2="39.813"/>
<circle fill="#3577BC" cx="5.443" cy="27.932" r="0.735"/>
<circle fill="#3577BC" cx="47.578" cy="23.098" r="0.736"/>
</svg>

