<?xml version="1.0" encoding="utf-8"?>
<!-- Generator: Adobe Illustrator 15.1.0, SVG Export Plug-In . SVG Version: 6.00 Build 0)  -->
<!DOCTYPE svg PUBLIC "-//W3C//DTD SVG 1.1//EN" "http://www.w3.org/Graphics/SVG/1.1/DTD/svg11.dtd">
<svg version="1.1" id="圖層_1" xmlns="http://www.w3.org/2000/svg" xmlns:xlink="http://www.w3.org/1999/xlink" x="0px" y="0px"
	 width="120px" height="280px" viewBox="-32.5 -153.75 120 280" enable-background="new -32.5 -153.75 120 280"
	 xml:space="preserve">
<g>
	<g>
		<path fill="none" stroke="#293D6E" stroke-width="3" stroke-linecap="round" stroke-linejoin="round" stroke-miterlimit="10" d="
			M39.286,88.237c0,0,0.43,6.641,10.998,19.836c10.567,13.187,32.824,16.548,32.824,16.548C87.543,91.497,57.159,73.92,57.159,73.92
			L39.286,88.237z"/>
		<path fill="none" stroke="#293D6E" stroke-width="3" stroke-linecap="round" stroke-linejoin="round" stroke-miterlimit="10" d="
			M39.286,88.237c0,0-2.901-8.564-1.922-10.395l9.894-7.928c0,0,6.532,0.817,9.899,4.005"/>
		<path fill="none" stroke="#293D6E" stroke-width="3" stroke-linecap="round" stroke-linejoin="round" stroke-miterlimit="10" d="
			M38.639,76.824c0,0-10.598-4.438-7.148-16.629c0,0,9.329-2.234,15.34,10.064"/>
		<path fill="none" stroke="#293D6E" stroke-width="3" stroke-linecap="round" stroke-linejoin="round" stroke-miterlimit="10" d="
			M45.701,101.867c0,0-7.659,3.201-12.9-2.033c-5.237-5.23-6.971-15.023-2.689-13.388c4.28,1.636,4.183,3.281,8.977,1.188"/>
		<path fill="none" stroke="#293D6E" stroke-width="3" stroke-linecap="round" stroke-linejoin="round" stroke-miterlimit="10" d="
			M69.061,83.151c0,0,4.792-6.775,0.83-13.031c-3.961-6.255-13.141-10.083-12.479-5.546c0.662,4.533,2.29,4.795-0.798,9.022"/>
		
			<line fill="none" stroke="#293D6E" stroke-width="3" stroke-linecap="round" stroke-linejoin="round" stroke-miterlimit="10" x1="82.125" y1="106.694" x2="65.986" y2="119.624"/>
		
			<circle fill="none" stroke="#293D6E" stroke-width="3" stroke-linecap="round" stroke-linejoin="round" stroke-miterlimit="10" cx="64.415" cy="101.669" r="7.02"/>
		
			<line fill="none" stroke="#293D6E" stroke-width="3" stroke-linecap="round" stroke-linejoin="round" stroke-miterlimit="10" x1="57.991" y1="93.104" x2="54.153" y2="88.315"/>
		
			<line fill="none" stroke="#293D6E" stroke-width="3" stroke-linecap="round" stroke-linejoin="round" stroke-miterlimit="10" x1="52.261" y1="85.955" x2="50.343" y2="83.559"/>
		
			<line fill="none" stroke="#293D6E" stroke-width="3" stroke-linecap="round" stroke-linejoin="round" stroke-miterlimit="10" x1="28.33" y1="56.087" x2="17.762" y2="42.895"/>
		
			<line fill="none" stroke="#293D6E" stroke-width="3" stroke-linecap="round" stroke-linejoin="round" stroke-miterlimit="10" x1="40.116" y1="56.425" x2="29.547" y2="43.235"/>
		
			<line fill="none" stroke="#293D6E" stroke-width="3" stroke-linecap="round" stroke-linejoin="round" stroke-miterlimit="10" x1="25.966" y1="67.759" x2="15.398" y2="54.572"/>
		
			<line fill="none" stroke="#293D6E" stroke-width="3" stroke-linecap="round" stroke-linejoin="round" stroke-miterlimit="10" x1="26.307" y1="78.143" x2="21.792" y2="72.504"/>
		
			<line fill="none" stroke="#293D6E" stroke-width="3" stroke-linecap="round" stroke-linejoin="round" stroke-miterlimit="10" x1="49.769" y1="59.348" x2="45.252" y2="53.708"/>
	</g>
	<g>
		<g>
			<path fill="none" stroke="#293D6E" stroke-width="3" stroke-linecap="round" stroke-linejoin="round" d="M9,34.529
				c0,0-1.708-1.612-4.396-4.836"/>
			
				<path fill="none" stroke="#293D6E" stroke-width="3" stroke-linecap="round" stroke-linejoin="round" stroke-dasharray="5.633,5.633" d="
				M-2.711,19.84c-15.984-23.982-40.01-77.306-15.596-159.858"/>
			<path fill="none" stroke="#293D6E" stroke-width="3" stroke-linecap="round" stroke-linejoin="round" d="M-16.498-145.905
				c0.656-2.054,1.337-4.125,2.053-6.213"/>
		</g>
	</g>
</g>
</svg>
