<svg id="圖層_1" data-name="圖層 1" xmlns="http://www.w3.org/2000/svg" viewBox="0 0 400 400"><defs><style>.cls-1{fill:none;stroke:#fff;stroke-linecap:round;stroke-linejoin:round;stroke-width:5px;}</style></defs><title>roomlobby</title><line class="cls-1" x1="179.39" y1="191.73" x2="196.49" y2="185.29"/><line class="cls-1" x1="196.49" y1="185.29" x2="387.39" y2="244.51"/><line class="cls-1" x1="196.49" y1="185.29" x2="196.49" y2="11.33"/><polyline class="cls-1" points="335.73 109.84 335.73 191.18 286.02 212.3 286.02 94.51 349.59 114.12 349.59 232.02"/><polygon class="cls-1" points="32.52 127.28 32.52 204.32 146.81 164.18 146.81 95.03 32.52 127.28"/><polygon class="cls-1" points="104.86 294.46 240.23 239.55 325.32 268.12 192.33 327.78 104.86 294.46"/><line class="cls-1" x1="104.86" y1="305.02" x2="104.86" y2="327.78"/><line class="cls-1" x1="191.5" y1="336.38" x2="191.5" y2="359.14"/><line class="cls-1" x1="325.32" y1="279.2" x2="325.32" y2="301.96"/><path class="cls-1" d="M38.61,223.08s131.9-47.72,140.78-51V229.7L38.61,285.19"/><line class="cls-1" x1="179.39" y1="172.04" x2="158.4" y2="164.18"/><line class="cls-1" x1="89.66" y1="185.29" x2="89.66" y2="194.4"/><line class="cls-1" x1="99.87" y1="180.66" x2="99.87" y2="191.73"/><path class="cls-1" d="M196.49,294.67s2.53-3.33,4.36-2.67,14.83,3.83,4.5-2.33-14.17-4.17-19.83,1.67,2,5.42,8.5,10.62S200.66,303,196.49,294.67Z"/><path class="cls-1" d="M187.94,289s-23.75-20.35-51.09-18S109,230,109,230"/><path class="cls-1" d="M235.9,266.27s2.53-3.33,4.36-2.67,14.83,3.83,4.5-2.33-14.17-4.17-19.83,1.67,2,5.41,8.5,10.62S240.07,274.6,235.9,266.27Z"/><path class="cls-1" d="M227.35,260.61s-23.75-20.35-51.09-18-41.74-21.93-41.74-21.93"/><line class="cls-1" x1="127.52" y1="81.5" x2="143.52" y2="44"/><line class="cls-1" x1="82.02" y1="86.5" x2="80.02" y2="40"/><line class="cls-1" x1="49.52" y1="98.31" x2="16.52" y2="68.5"/></svg>